HIERARCHY
ROOT reference
{
  OFFSET 0 0 0
  CHANNELS 6 Xposition Yposition Zposition Zrotation Xrotation Yrotation
  JOINT Hips
  {
    OFFSET 17.3603 39.9937 -8.51984
    CHANNELS 3 Zrotation Xrotation Yrotation
    JOINT LeftHip
    {
      OFFSET 3.43 -7.10543e-015 4.44089e-015
      CHANNELS 3 Zrotation Xrotation Yrotation
      JOINT LeftKnee
      {
        OFFSET 2.30926e-013 -18.47 -2.77556e-013
        CHANNELS 3 Zrotation Xrotation Yrotation
        JOINT LeftAnkle
        {
          OFFSET 8.25651e-012 -17.95 -2.46181e-012
          CHANNELS 3 Zrotation Xrotation Yrotation
          End Site
          {
            OFFSET 0 -3.12 0
          }
        }
      }
    }
    JOINT RightHip
    {
      OFFSET -3.43 -7.10543e-015 8.88178e-016
      CHANNELS 3 Zrotation Xrotation Yrotation
      JOINT RightKnee
      {
        OFFSET -5.32907e-014 -18.47 -1.76748e-013
        CHANNELS 3 Zrotation Xrotation Yrotation
        JOINT RightAnkle
        {
          OFFSET -3.74634e-012 -17.95 -2.0588e-012
          CHANNELS 3 Zrotation Xrotation Yrotation
          End Site
          {
            OFFSET 0 -3.12 0
          }
        }
      }
    }
    JOINT Chest
    {
      OFFSET 7.10543e-015 4.57 8.88178e-015
      CHANNELS 3 Zrotation Xrotation Yrotation
      JOINT Chest2
      {
        OFFSET -3.55271e-015 6.57 2.66454e-015
        CHANNELS 3 Zrotation Xrotation Yrotation
        JOINT LeftCollar
        {
          OFFSET 1.06 4.19 1.76
          CHANNELS 3 Zrotation Xrotation Yrotation
          JOINT LeftShoulder
          {
            OFFSET 5.81 -7.10543e-015 -3.10862e-015
            CHANNELS 3 Zrotation Xrotation Yrotation
            JOINT LeftElbow
            {
              OFFSET 2.55795e-013 -12.08 8.52651e-014
              CHANNELS 3 Zrotation Xrotation Yrotation
              JOINT LeftWrist
              {
                OFFSET 1.20792e-012 -9.82 4.9738e-014
                CHANNELS 3 Zrotation Xrotation Yrotation
                End Site
                {
                  OFFSET 0 -7.37 0
                }
              }
            }
          }
        }
        JOINT RightCollar
        {
          OFFSET -1.06 4.19 1.76
          CHANNELS 3 Zrotation Xrotation Yrotation
          JOINT RightShoulder
          {
            OFFSET -6.06 -3.55271e-014 3.10862e-015
            CHANNELS 3 Zrotation Xrotation Yrotation
            JOINT RightElbow
            {
              OFFSET -6.39488e-014 -11.08 -3.41949e-014
              CHANNELS 3 Zrotation Xrotation Yrotation
              JOINT RightWrist
              {
                OFFSET -3.41061e-013 -9.82 -2.26041e-013
                CHANNELS 3 Zrotation Xrotation Yrotation
                End Site
                {
                  OFFSET 0 -7.14001 0
                }
              }
            }
          }
        }
        JOINT Neck
        {
          OFFSET 0 4.05 -5.77316e-015
          CHANNELS 3 Zrotation Xrotation Yrotation
          JOINT Head
          {
            OFFSET 7.10543e-015 5.19 -7.10543e-015
            CHANNELS 3 Zrotation Xrotation Yrotation
            End Site
            {
              OFFSET 0 4.14001 0
            }
          }
        }
      }
    }
  }
}
MOTION
Frames:	23
Frame Time:	0.0333333
0 0 0 0 0 0 -7.70415 -1.05662 -88.1654 -3.59663 -5.86162 -1.06345 -1.71687 12.8266 10.2395 4.2716 -3.06975 0.114511 -5.0436 1.73036 -15.3979 -4.23476 52.2294 -16.5398 13.7868 10.0595 -1.21924 -1.45265 2.88216 2.66083 -3.64983 1.75408 3.71405 -11.8422 -0.760383 5.13286 39.9628 26.0356 -15.7004 -7.58689 -42.6674 -5.15823 -3.78321 15.2565 -38.4039 8.83106 -0.0326877 -2.62371 -53.2941 14.7483 -107.595 132.973 -47.2704 141.745 -18.8862 -1.30171 -86.331 2.52362 16.8136 -4.72292 1.55194 5.12813 -4.39683 
0 0 0 0 0 0 -8.55361 -0.153536 -88.2641 -3.37657 -3.98165 -0.758504 -1.26111 14.6645 10.6505 4.07375 -6.44631 0.229506 -5.1683 -2.41733 -16.6038 -5.72762 57.6951 -23.9518 10.0296 13.7598 -1.2132 -0.433706 3.27174 2.21065 -2.78211 2.32807 3.29117 -11.8117 -0.739978 5.00447 38.2099 20.225 -16.5396 -8.90062 -43.2633 -6.12616 -1.90102 14.27 -38.1573 8.41805 -0.0178197 -2.57889 -54.104 13.7525 -107.582 132.663 -47.62 141.287 -18.4357 -2.14305 -85.9439 1.93357 16.5415 -4.24409 0.864549 4.6932 -3.98332 
0 0 0 0 0 0 -8.68846 0.342186 -87.8682 -2.80099 -1.91612 -0.265127 -1.1867 14.8877 8.75231 3.87543 -7.96845 0.270027 -5.08471 -6.49317 -17.3305 -5.12085 60.6977 -26.1142 6.50645 12.0704 -0.688629 -0.151038 3.34109 1.61773 -2.18712 2.40853 2.61371 -12.0154 -0.740578 4.94777 37.6328 13.9478 -17.1639 -10.0415 -44.4222 -7.06526 -0.514275 12.4984 -38.5349 7.93042 0.0143549 -2.39321 -54.4523 13.3022 -107.15 132.727 -47.915 141.218 -18.2915 -2.2962 -85.6672 1.6553 16.2909 -3.93876 0.596879 4.69606 -3.7184 
0 0 0 0 0 0 -8.67013 0.580145 -87.1499 -2.49566 -0.24398 -0.300014 -0.371682 14.2107 7.86947 3.05005 -7.01274 0.186934 -4.94879 -10.0677 -17.1896 -2.92309 62.1138 -23.9463 6.16772 9.1414 -0.493542 -0.238304 3.25102 1.0936 -1.79308 2.20232 1.96418 -11.631 -0.709964 4.85458 37.2151 6.82279 -18.4733 -11.6163 -45.1448 -8.29105 2.85861 11.6181 -39.0173 8.02667 0.0151132 -2.36874 -54.6936 13.9502 -106.696 132.692 -48.0824 141.11 -18.0375 -2.60714 -85.1007 1.74245 16.2818 -3.92697 0.916221 4.96047 -3.7381 
0 0 0 0 0 0 -8.54347 1.34638 -86.1151 -1.658 -1.0601 0.241247 -0.143342 17.0963 9.57163 2.43998 -8.19886 0.174902 -4.08925 -13.3741 -16.2526 0.092808 60.7075 -22.0462 6.81024 7.9074 -0.471241 0.335222 3.15897 0.631735 -1.37535 2.0469 1.5425 -11.0572 -0.662398 4.69361 36.7517 -0.638479 -19.3448 -12.7203 -46.0919 -9.23708 4.24512 9.95884 -38.8967 8.19561 0.00136625 -2.45696 -54.7218 14.8578 -107.378 132.855 -47.6858 141.445 -18.0096 -1.99251 -85.8081 2.05539 16.1642 -4.37179 0.921592 5.32834 -4.01265 
0 0 0 0 0 0 -8.80904 1.34957 -85.412 -1.02293 0.683046 0.894041 0.121659 17.9862 7.54313 1.73855 -10.3373 0.157273 -3.73238 -15.2555 -14.945 2.93182 57.2951 -17.7423 6.17457 4.07357 -0.219802 0.120982 3.29788 0.367632 -0.954259 2.30498 1.23876 -11.0019 -0.621167 4.41715 37.1178 -7.89082 -20.1122 -13.8909 -46.8093 -10.2209 4.55807 9.20437 -36.661 8.13357 -0.000280768 -2.48296 -54.1038 15.8668 -108.278 132.873 -47.26 141.652 -18.0057 -1.78417 -86.2182 2.40544 15.9451 -5.03416 0.446361 6.16361 -4.38928 
0 0 0 0 0 0 -9.34749 1.20736 -85.2227 -0.821348 2.55551 1.3224 0.29044 18.9002 7.26189 1.10083 -12.5256 0.120813 -3.66623 -16.0328 -13.6111 4.4473 51.6638 -13.7956 5.57603 1.4039 -0.0683713 -0.0513134 3.71835 0.0349926 -0.977191 2.96392 0.841946 -10.9197 -0.639979 4.57458 37.8015 -14.7414 -19.995 -14.4425 -47.927 -10.8229 3.57029 7.37497 -32.781 8.30566 0.0217742 -2.26157 -53.8608 15.5314 -108.941 133.251 -47.1691 142.061 -17.2918 -1.7541 -86.3464 2.61888 15.6317 -5.21355 0.227609 6.34305 -4.39357 
0 0 0 0 0 0 -9.0514 1.36057 -85.2756 -0.235131 3.57982 1.93378 0.396583 19.6423 6.91317 0.381563 -14.5327 0.0486517 -3.253 -16.649 -12.4482 5.54315 42.2807 -16.1438 5.08558 1.38103 -0.0613336 -0.102931 3.65253 -0.055118 -0.715499 2.86949 0.770191 -10.4558 -0.650051 4.78758 37.3008 -20.3747 -19.3134 -13.8414 -49.2216 -10.5685 3.5681 8.16645 -35.349 8.17559 0.0145429 -2.34668 -53.6959 16.2972 -108.852 132.358 -47.2076 141.172 -18.1801 -1.84974 -85.9819 2.15635 15.5748 -4.77075 1.73133 5.36039 -4.64224 
0 0 0 0 0 0 -8.27836 1.45986 -85.4598 0.293392 4.53326 2.28467 0.320534 19.3878 6.03266 -0.0294568 -15.9365 -0.00412324 -2.3278 -16.6995 -9.46217 5.77718 30.572 -19.2377 4.27388 1.0178 -0.0379791 -0.147746 3.31673 -0.221758 -0.522654 2.35213 0.56572 -10.1164 -0.616275 4.64212 36.4805 -23.9233 -18.1989 -12.8975 -50.4349 -10.011 5.88277 5.08388 -32.6412 8.23949 0.00716967 -2.39876 -53.3776 16.5019 -108.804 132.345 -47.1525 141.184 -18.4163 -2.05318 -86.4368 2.08601 15.5569 -4.85765 1.90321 5.7217 -4.81854 
0 0 0 0 0 0 -7.87766 0.269804 -85.4907 -0.118951 6.82812 2.77343 0.275483 17.4629 5.92866 -0.951074 -16.4986 -0.13789 -2.31693 -14.9137 -6.63835 4.93183 16.6745 -22.5976 3.95335 3.15282 -0.108841 -1.412 3.28014 -0.534085 -0.749776 2.22344 0.429459 -10.7624 -0.637699 4.60433 37.5467 -27.6842 -16.4033 -11.9285 -51.6339 -9.40482 4.35781 5.01386 -35.5051 7.65663 0.0342064 -2.26648 -52.1105 16.3486 -109.024 132.795 -46.9268 141.727 -18.1553 -1.73532 -86.2594 1.90036 15.6051 -4.86904 2.42831 5.70394 -5.09867 
0 0 0 0 0 0 -7.1923 -1.49381 -85.2417 -0.85921 9.75301 3.18053 0.390561 14.0256 5.3128 -2.1462 -16.3547 -0.308441 -2.83975 -13.6234 -3.74621 3.66658 6.58131 -28.313 3.86846 3.56898 -0.120569 -3.32817 2.89173 -0.89768 -1.21589 1.67328 0.556669 -11.5038 -0.627798 4.32682 41.5335 -32.0655 -18.9363 -15.336 -50.2954 -11.914 9.93961 1.59542 -28.5989 7.90756 0.0405687 -2.16584 -51.8805 17.7378 -108.918 132.685 -46.8746 141.644 -18.2804 -1.21638 -86.4124 2.31808 16.3522 -5.39272 2.63694 5.41189 -5.54612 
0 0 0 0 0 0 -6.51535 -2.74851 -85.6425 -1.7749 13.6695 3.23886 0.060587 8.50637 4.62634 -2.22359 -15.3031 -0.298763 -3.29156 -12.943 -1.95348 1.51681 0.389437 -29.9792 5.04592 6.43425 -0.283806 -4.22426 2.69569 -0.984622 -2.07894 1.09844 0.555131 -11.0186 -0.607193 4.31331 40.8514 -32.6887 -17.2522 -13.63 -52.2836 -10.8582 8.71216 1.34441 -29.8273 7.7621 0.043315 -2.16618 -50.764 17.4785 -109.337 133.084 -46.4654 142.219 -18.0035 -0.850726 -86.955 2.75209 16.1406 -5.81866 2.44355 6.06825 -5.77081 
0 0 0 0 0 0 -6.50679 -3.28813 -85.6284 -1.81621 19.7877 4.49941 -0.224462 0.0309064 3.0661 -2.49926 -12.8445 -0.281363 -2.91316 -12.0277 -0.484189 -0.579877 0.25258 -31.3381 4.70186 4.13678 -0.169907 -4.50227 2.71763 -1.06763 -2.32528 1.03114 0.399224 -10.6654 -0.587169 4.26638 39.8938 -32.8148 -16.5751 -12.7513 -53.6886 -10.3346 8.16311 1.63116 -30.2011 7.28925 0.0451532 -2.23312 -50.077 17.2628 -109.638 132.885 -46.3902 142.06 -17.8748 -0.999704 -86.9333 2.78981 16.1319 -6.09209 2.73849 6.10013 -6.1476 
0 0 0 0 0 0 -6.73917 -3.46606 -85.8805 -0.734955 18.4176 5.56292 -0.29073 7.57835 0.638772 -3.38239 -15.2261 -0.452219 -2.56855 -14.1443 -0.764198 -0.408849 6.36556 -32.4972 5.05206 3.07813 -0.135828 -4.42936 2.46578 -0.919839 -2.16914 0.79196 0.454939 -11.0677 -0.551704 3.90734 39.8855 -31.2818 -17.1322 -13.087 -54.5043 -10.7174 8.88117 1.03316 -28.7282 7.27936 0.0485002 -2.20383 -50.749 17.6601 -108.935 132.781 -46.7304 141.803 -18.0888 -1.08286 -86.9932 2.61455 17.1967 -6.36611 2.70662 5.37095 -6.44487 
0 0 0 0 0 0 -7.33925 -3.21749 -86.151 1.38554 15.2105 6.4437 -0.434693 19.1777 -2.85865 -3.47247 -17.0878 -0.52184 -1.96655 -14.9117 -0.821518 -0.412555 11.7025 -33.0727 4.83533 4.16151 -0.175781 -3.9706 2.46299 -0.88492 -1.95221 0.735573 0.264543 -11.1201 -0.550914 3.88891 40.51 -29.7756 -18.7848 -14.6006 -54.4733 -11.9695 10.4465 0.567401 -27.0149 7.39839 0.054425 -2.12798 -51.6173 16.9434 -108.429 132.654 -47.0975 141.512 -17.8492 -1.39513 -86.7453 2.47578 17.4395 -6.2141 2.37431 5.58607 -6.26035 
0 0 0 0 0 0 -8.16172 -1.55477 -86.9511 5.25736 11.7769 8.62533 -0.510429 31.179 -6.93406 -2.73269 -14.1632 -0.339548 0.832448 -12.6916 0.448784 -0.902967 11.3587 -37.3534 5.08393 4.72039 -0.209679 -2.4945 2.6831 -0.695959 -1.24138 1.09713 0.121305 -10.4632 -0.573077 4.21916 38.1584 -25.7177 -18.7034 -13.5849 -55.9016 -11.3155 8.87691 0.640276 -29.1144 7.41557 0.0507254 -2.15902 -51.5908 15.3082 -108.428 132.427 -47.3042 141.196 -17.5466 -2.00718 -86.0794 2.34182 16.9795 -6.06359 2.06834 6.07843 -6.0719 
0 0 0 0 0 0 -8.98435 -0.55217 -87.9245 8.62334 7.28627 11.1331 0.117642 43.0903 -8.43232 -3.73401 -3.45868 -0.112777 2.48384 -9.93127 0.21855 0.583941 10.3592 -33.8175 2.71197 2.09735 -0.0496517 -1.88108 2.97762 -0.275982 -0.123709 1.55058 0.534393 -10.7424 -0.582938 4.21471 36.354 -21.7332 -18.5057 -12.8909 -55.8191 -10.721 6.53208 1.0082 -31.7952 8.18594 0.00987143 -2.38522 -52.509 13.8427 -108.574 131.95 -47.6232 140.583 -17.6603 -2.73723 -85.9959 2.32257 17.0183 -5.99345 1.6801 5.77163 -5.9097 
0 0 0 0 0 0 -9.26939 -0.0629687 -88.4044 10.0017 3.11414 11.6816 2.42549 49.6656 -6.62591 -9.18315 10.0117 0.806079 3.27377 -8.03427 -0.169857 1.30344 11.6882 -32.6301 2.70712 0.605118 -0.0142982 -1.495 3.00966 -0.225877 0.139082 1.71586 0.365922 -10.5162 -0.577919 4.24009 35.0046 -17.2968 -18.7173 -12.5597 -54.8434 -10.3231 4.41881 2.32953 -33.51 7.69966 0.0254323 -2.33755 -51.8507 12.4868 -108.448 132.255 -47.5946 140.897 -17.5472 -2.17943 -85.1688 2.36926 17.0275 -5.7241 1.93694 6.09913 -5.64164 
0 0 0 0 0 0 -9.43992 -0.193991 -88.7417 9.99981 -1.72295 11.5268 5.40496 56.6648 -3.52133 -11.0406 17.3857 1.69316 3.61316 -7.49594 -0.553774 1.37637 13.4397 -32.2104 0.864449 -1.3747 0.010371 -1.42495 3.08013 -0.176633 -0.127628 1.90605 0.346582 -10.9399 -0.62079 4.43186 36.0674 -14.5211 -20.6859 -14.4089 -52.3036 -11.4912 1.86895 5.22987 -31.318 7.36332 0.0473048 -2.19978 -51.6818 12.111 -109.152 132.676 -47.1128 141.527 -17.44 -1.7145 -85.816 2.36204 16.9572 -5.81393 2.52624 5.7386 -5.84114 
0 0 0 0 0 0 -9.79516 -0.558272 -89.6799 9.67216 -5.80454 11.4753 7.94512 61.4339 -0.0786864 -13.9278 22.7713 2.81803 3.84051 -5.41601 -0.778437 1.27013 13.2105 -29.8821 0.0294726 -2.33301 0.000600126 -1.77177 3.35582 0.379688 -0.641406 2.37259 1.05286 -11.1143 -0.621341 4.38719 36.4086 -11.4096 -20.8 -14.4397 -49.584 -11.0919 -2.64414 5.93975 -33.6374 7.6297 0.0140389 -2.45351 -52.0973 13.0057 -109.208 132.643 -47.0326 141.531 -18.3602 -0.809811 -86.3967 2.81505 16.8047 -6.41634 3.20994 5.18254 -6.44477 
0 0 0 0 0 0 -10.001 -1.3367 -91.7303 8.6347 -9.01668 11.336 8.52295 64.1388 2.25034 -15.8142 26.6513 3.76839 3.78132 -4.43865 -0.611058 0.695393 14.0764 -29.3464 -0.567579 -4.07222 -0.0201786 -2.6182 3.39748 1.28245 -1.23691 2.36866 2.25343 -11.4613 -0.635102 4.38856 37.3193 -7.73937 -21.011 -14.5266 -47.3311 -10.7868 -5.54497 9.36084 -36.1008 7.66736 -0.0105126 -2.66724 -51.8053 13.2115 -110.228 132.274 -46.8644 141.246 -17.5081 -1.21444 -86.9818 3.43597 16.655 -6.9879 3.29648 5.48766 -6.84936 
0 0 0 0 0 0 -10.2471 -1.46526 -93.8864 7.80085 -11.6958 11.36 7.41532 66.0498 1.34724 -13.6568 23.1388 2.80849 3.73861 -2.8422 -0.706864 0.37279 13.8841 -27.1138 -1.4074 -4.65961 -0.0572631 -2.74443 3.43269 1.68679 -1.60328 2.32512 2.6855 -12.112 -0.697722 4.63509 38.4782 -2.9021 -20.7023 -14.2508 -45.5619 -10.2786 -6.53891 11.7843 -37.7171 8.15358 -0.0136904 -2.5954 -53.2307 13.077 -108.824 132.102 -47.5473 140.768 -17.5536 -1.71008 -86.1646 3.24546 16.7095 -6.64961 3.92927 5.91141 -6.7753 
0 0 0 0 0 0 -10.4312 -1.40886 -95.9376 7.04245 -13.9357 10.8381 5.07871 66.6926 -3.73573 -9.46244 15.3319 1.2765 3.78082 -1.42292 -0.78692 -0.0268231 14.194 -24.9333 -1.93011 -5.2697 -0.0888305 -2.90846 3.36521 1.91032 -2.07499 2.27314 2.8173 -11.4125 -0.672829 4.66298 38.13 2.56139 -19.6456 -12.8505 -43.5502 -8.93233 -6.3544 12.9822 -38.7056 8.56919 -0.0265713 -2.62344 -53.7139 12.4531 -108.302 132.014 -47.7871 140.574 -16.9885 -2.25538 -86.3999 3.61943 16.9026 -6.74315 3.62766 6.38197 -6.62266 
